<svg width="128" height="128" viewBox="0 0 128 128" fill="none" xmlns="http://www.w3.org/2000/svg">
    <rect width="128" height="128" rx="32" fill="white" />
    <path
        d="M66.3726 34.4913C67.5074 35.045 68.1621 35.918 68.3367 37.1104C68.5549 38.3029 68.2494 39.3888 67.4201 40.3683C66.8527 41.1349 66.1107 41.5607 65.1941 41.6459C64.3211 41.7311 63.4263 41.5607 62.5097 41.1349C61.4622 40.6664 60.3492 40.3044 59.1707 40.0489C58.0359 39.7934 56.8355 39.6656 55.5698 39.6656C53.2128 39.6656 51.0959 40.0276 49.219 40.7516C47.3858 41.4756 45.8145 42.5189 44.5051 43.8817C43.1956 45.2019 42.1917 46.7776 41.4934 48.6089C40.8387 50.4401 40.5113 52.463 40.5113 54.6775C40.5113 57.2753 40.8823 59.5324 41.6243 61.4488C42.41 63.3652 43.4793 64.9622 44.8324 66.2398C46.1855 67.5174 47.7786 68.4756 49.6118 69.1144C51.4451 69.7106 53.431 70.0087 55.5698 70.0087C56.7482 70.0087 57.9267 69.9023 59.1052 69.6893C60.2837 69.4764 61.4186 69.0931 62.5097 68.5395C63.4263 68.1136 64.3211 67.9646 65.1941 68.0923C66.1107 68.2201 66.8745 68.6672 67.4856 69.4338C68.3585 70.4985 68.6641 71.6057 68.4022 72.7556C68.1839 73.8628 67.5292 74.672 66.438 75.183C65.3032 75.7367 64.1247 76.2051 62.9026 76.5884C61.7241 76.9291 60.5238 77.1846 59.3016 77.355C58.0795 77.5679 56.8355 77.6744 55.5698 77.6744C52.4271 77.6744 49.4373 77.1846 46.6002 76.2051C43.8067 75.2256 41.297 73.7777 39.0709 71.8613C36.8885 69.9449 35.1645 67.56 33.8987 64.7067C32.6329 61.8108 32 58.4677 32 54.6775C32 51.3983 32.5674 48.3746 33.7023 45.6065C34.8807 42.8383 36.5175 40.4535 38.6126 38.4519C40.7514 36.4077 43.2611 34.832 46.1419 33.7248C49.0226 32.5749 52.1652 32 55.5698 32C57.4903 32 59.3671 32.2129 61.2003 32.6388C63.0335 33.0647 64.7576 33.6822 66.3726 34.4913Z"
        fill="black" />
    <path
        d="M76.4061 96C75.1839 96 74.18 95.638 73.3944 94.914C72.6087 94.1475 72.2159 93.2106 72.2159 92.1033V58.6301H61.9369C60.802 58.6301 59.8418 58.2894 59.0561 57.608C58.3141 56.9266 57.9431 56.0323 57.9431 54.925C57.9431 53.8178 58.3141 52.9447 59.0561 52.3059C59.8418 51.6245 60.802 51.2838 61.9369 51.2838H91.0062C92.1411 51.2838 93.0795 51.6245 93.8215 52.3059C94.6072 52.9873 95 53.8816 95 54.9889C95 56.0962 94.6072 56.9905 93.8215 57.6719C93.0795 58.3107 92.1411 58.6301 91.0062 58.6301H80.7272V92.1033C80.7272 93.2106 80.3125 94.1475 79.4832 94.914C78.6976 95.638 77.6719 96 76.4061 96Z"
        fill="black" fill-opacity="0.5" />
</svg>