<svg width="33" height="32" viewBox="0 0 33 32" fill="none" xmlns="http://www.w3.org/2000/svg">
<path d="M12.334 21C17.3045 21 21.334 16.9706 21.334 12C21.334 7.02944 17.3045 3 12.334 3C7.36342 3 3.33398 7.02944 3.33398 12C3.33398 16.9706 7.36342 21 12.334 21Z" stroke="black" stroke-width="2" stroke-linecap="round" stroke-linejoin="round"/>
<path d="M20.334 29C25.3045 29 29.334 24.9706 29.334 20C29.334 15.0294 25.3045 11 20.334 11C15.3634 11 11.334 15.0294 11.334 20C11.334 24.9706 15.3634 29 20.334 29Z" stroke="black" stroke-width="2" stroke-linecap="round" stroke-linejoin="round"/>
<path d="M15.6465 12.3125L20.0215 16.6875" stroke="black" stroke-width="2" stroke-linecap="round" stroke-linejoin="round"/>
<path d="M12.6465 15.3125L17.0215 19.6875" stroke="black" stroke-width="2" stroke-linecap="round" stroke-linejoin="round"/>
</svg>
